<svg xmlns="http://www.w3.org/2000/svg" xmlns:xlink="http://www.w3.org/1999/xlink" width="100" zoomAndPan="magnify" viewBox="0 0 75 74.999997" height="100" preserveAspectRatio="xMidYMid meet" version="1.0"><defs><clipPath id="32c1414164"><path d="M 36 7 L 67 7 L 67 23 L 36 23 Z M 36 7 " clip-rule="nonzero"/></clipPath><clipPath id="8d6f9d19fe"><path d="M 36.535156 7.839844 L 66.425781 7.628906 L 66.527344 22.542969 L 36.640625 22.753906 Z M 36.535156 7.839844 " clip-rule="nonzero"/></clipPath><clipPath id="50a335722a"><path d="M 66.527344 22.542969 C 66.472656 14.421875 59.632812 7.675781 51.507812 7.734375 C 43.382812 7.792969 36.640625 14.628906 36.699219 22.753906 L 44.980469 22.695312 C 44.953125 19.082031 47.953125 16.042969 51.566406 16.015625 C 55.179688 15.992188 58.222656 18.988281 58.246094 22.601562 Z M 66.527344 22.542969 " clip-rule="nonzero"/></clipPath><clipPath id="c361f91a27"><path d="M 0.480469 0.441406 L 30.71875 0.441406 L 30.71875 15.800781 L 0.480469 15.800781 Z M 0.480469 0.441406 " clip-rule="nonzero"/></clipPath><clipPath id="5f571a076b"><path d="M 0.535156 0.839844 L 30.425781 0.628906 L 30.527344 15.542969 L 0.640625 15.753906 Z M 0.535156 0.839844 " clip-rule="nonzero"/></clipPath><clipPath id="e5a99d9793"><path d="M 30.527344 15.542969 C 30.472656 7.421875 23.632812 0.675781 15.507812 0.734375 C 7.382812 0.792969 0.640625 7.628906 0.699219 15.753906 L 8.980469 15.695312 C 8.953125 12.082031 11.953125 9.042969 15.566406 9.015625 C 19.179688 8.992188 22.222656 11.988281 22.246094 15.601562 Z M 30.527344 15.542969 " clip-rule="nonzero"/></clipPath><clipPath id="a821d18c89"><rect x="0" width="31" y="0" height="16"/></clipPath><clipPath id="bc2ad8ca9a"><path d="M 36 7 L 67 7 L 67 23 L 36 23 Z M 36 7 " clip-rule="nonzero"/></clipPath><clipPath id="fba627caff"><path d="M 36.59375 7.839844 L 66.59375 7.628906 L 66.699219 22.628906 L 36.699219 22.839844 Z M 36.59375 7.839844 " clip-rule="nonzero"/></clipPath><clipPath id="6073390b54"><path d="M 36.023438 7.84375 L 66.410156 7.628906 L 66.515625 22.535156 L 36.128906 22.75 Z M 36.023438 7.84375 " clip-rule="nonzero"/></clipPath><clipPath id="fd2d870f69"><path d="M 66.515625 22.535156 C 66.457031 14.414062 59.625 7.675781 51.503906 7.734375 C 43.386719 7.792969 36.644531 14.625 36.703125 22.746094 L 44.980469 22.6875 C 44.953125 19.074219 47.953125 16.035156 51.5625 16.011719 C 55.171875 15.984375 58.214844 18.984375 58.238281 22.59375 Z M 66.515625 22.535156 " clip-rule="nonzero"/></clipPath><clipPath id="bbb76cecce"><path d="M 6 7 L 37 7 L 37 23 L 6 23 Z M 6 7 " clip-rule="nonzero"/></clipPath><clipPath id="895c2623d7"><path d="M 6.703125 8.050781 L 36.59375 7.839844 L 36.699219 22.753906 L 6.808594 22.964844 Z M 6.703125 8.050781 " clip-rule="nonzero"/></clipPath><clipPath id="73661112db"><path d="M 36.699219 22.753906 C 36.640625 14.628906 29.800781 7.886719 21.675781 7.945312 C 13.550781 8 6.808594 14.839844 6.867188 22.964844 L 15.148438 22.90625 C 15.121094 19.292969 18.121094 16.253906 21.734375 16.226562 C 25.347656 16.199219 28.390625 19.199219 28.414062 22.8125 Z M 36.699219 22.753906 " clip-rule="nonzero"/></clipPath><clipPath id="1d39c88064"><path d="M 0.71875 0.679688 L 30.71875 0.679688 L 30.71875 16 L 0.71875 16 Z M 0.71875 0.679688 " clip-rule="nonzero"/></clipPath><clipPath id="82cee90e40"><path d="M 0.703125 1.050781 L 30.59375 0.839844 L 30.699219 15.753906 L 0.808594 15.964844 Z M 0.703125 1.050781 " clip-rule="nonzero"/></clipPath><clipPath id="bfd90a3ed7"><path d="M 30.699219 15.753906 C 30.640625 7.628906 23.800781 0.886719 15.675781 0.945312 C 7.550781 1 0.808594 7.839844 0.867188 15.964844 L 9.148438 15.90625 C 9.121094 12.292969 12.121094 9.253906 15.734375 9.226562 C 19.347656 9.199219 22.390625 12.199219 22.414062 15.8125 Z M 30.699219 15.753906 " clip-rule="nonzero"/></clipPath><clipPath id="c24af9aeba"><rect x="0" width="31" y="0" height="16"/></clipPath><clipPath id="a67283b73a"><path d="M 6 7 L 37 7 L 37 23 L 6 23 Z M 6 7 " clip-rule="nonzero"/></clipPath><clipPath id="9164a2874a"><path d="M 6.761719 8.050781 L 36.761719 7.839844 L 36.867188 22.835938 L 6.867188 23.050781 Z M 6.761719 8.050781 " clip-rule="nonzero"/></clipPath><clipPath id="f4139ad7fb"><path d="M 6.195312 8.054688 L 36.578125 7.839844 L 36.683594 22.746094 L 6.296875 22.960938 Z M 6.195312 8.054688 " clip-rule="nonzero"/></clipPath><clipPath id="bab76c733f"><path d="M 36.683594 22.746094 C 36.625 14.625 29.792969 7.886719 21.671875 7.945312 C 13.554688 8 6.816406 14.835938 6.871094 22.957031 L 15.148438 22.898438 C 15.125 19.285156 18.121094 16.246094 21.730469 16.222656 C 25.34375 16.195312 28.382812 19.191406 28.40625 22.804688 Z M 36.683594 22.746094 " clip-rule="nonzero"/></clipPath><clipPath id="2ae710828b"><path d="M 7 51 L 37 51 L 37 67 L 7 67 Z M 7 51 " clip-rule="nonzero"/></clipPath><clipPath id="2202114cc7"><path d="M 37.058594 66.78125 L 7.167969 66.992188 L 7.0625 52.078125 L 36.953125 51.867188 Z M 37.058594 66.78125 " clip-rule="nonzero"/></clipPath><clipPath id="e61d872a7d"><path d="M 7.0625 52.078125 C 7.121094 60.199219 13.960938 66.945312 22.085938 66.886719 C 30.207031 66.832031 36.953125 59.992188 36.894531 51.867188 L 28.613281 51.925781 C 28.636719 55.539062 25.640625 58.578125 22.027344 58.605469 C 18.414062 58.628906 15.371094 55.632812 15.34375 52.019531 Z M 7.0625 52.078125 " clip-rule="nonzero"/></clipPath><clipPath id="1c9a397cd4"><path d="M 0 0.839844 L 29.960938 0.839844 L 29.960938 15.960938 L 0 15.960938 Z M 0 0.839844 " clip-rule="nonzero"/></clipPath><clipPath id="397f4963be"><path d="M 30.058594 15.78125 L 0.167969 15.992188 L 0.0625 1.078125 L 29.953125 0.867188 Z M 30.058594 15.78125 " clip-rule="nonzero"/></clipPath><clipPath id="07428aa764"><path d="M 0.0625 1.078125 C 0.121094 9.199219 6.960938 15.945312 15.085938 15.886719 C 23.207031 15.832031 29.953125 8.992188 29.894531 0.867188 L 21.613281 0.925781 C 21.636719 4.539062 18.640625 7.578125 15.027344 7.605469 C 11.414062 7.628906 8.371094 4.632812 8.34375 1.019531 Z M 0.0625 1.078125 " clip-rule="nonzero"/></clipPath><clipPath id="ef9231b098"><rect x="0" width="30" y="0" height="16"/></clipPath><clipPath id="4f5ebe6ae2"><path d="M 7 51 L 37 51 L 37 67 L 7 67 Z M 7 51 " clip-rule="nonzero"/></clipPath><clipPath id="a3accca120"><path d="M 37 66.78125 L 7 66.992188 L 6.894531 51.992188 L 36.894531 51.78125 Z M 37 66.78125 " clip-rule="nonzero"/></clipPath><clipPath id="ca9c81c308"><path d="M 37.566406 66.777344 L 7.183594 66.992188 L 7.078125 52.085938 L 37.460938 51.871094 Z M 37.566406 66.777344 " clip-rule="nonzero"/></clipPath><clipPath id="5f3566ef9c"><path d="M 7.078125 52.085938 C 7.132812 60.207031 13.96875 66.945312 22.089844 66.886719 C 30.207031 66.832031 36.945312 59.996094 36.890625 51.875 L 28.613281 51.933594 C 28.636719 55.546875 25.640625 58.585938 22.03125 58.609375 C 18.417969 58.636719 15.378906 55.640625 15.355469 52.027344 Z M 7.078125 52.085938 " clip-rule="nonzero"/></clipPath><clipPath id="20d07db8e1"><path d="M 36 51 L 67 51 L 67 67 L 36 67 Z M 36 51 " clip-rule="nonzero"/></clipPath><clipPath id="a82607c540"><path d="M 66.890625 66.570312 L 37 66.78125 L 36.894531 51.867188 L 66.785156 51.65625 Z M 66.890625 66.570312 " clip-rule="nonzero"/></clipPath><clipPath id="7c63405800"><path d="M 36.894531 51.867188 C 36.953125 59.992188 43.792969 66.734375 51.914062 66.675781 C 60.039062 66.621094 66.785156 59.78125 66.726562 51.65625 L 58.445312 51.714844 C 58.46875 55.328125 55.46875 58.371094 51.855469 58.394531 C 48.242188 58.421875 45.203125 55.421875 45.175781 51.808594 Z M 36.894531 51.867188 " clip-rule="nonzero"/></clipPath><clipPath id="45a1a8100f"><path d="M 0.71875 0.601562 L 30.960938 0.601562 L 30.960938 15.960938 L 0.71875 15.960938 Z M 0.71875 0.601562 " clip-rule="nonzero"/></clipPath><clipPath id="2eeee8b4b3"><path d="M 30.890625 15.570312 L 1 15.78125 L 0.894531 0.867188 L 30.785156 0.65625 Z M 30.890625 15.570312 " clip-rule="nonzero"/></clipPath><clipPath id="23852a3b9e"><path d="M 0.894531 0.867188 C 0.953125 8.992188 7.792969 15.734375 15.914062 15.675781 C 24.039062 15.621094 30.785156 8.78125 30.726562 0.65625 L 22.445312 0.714844 C 22.46875 4.328125 19.46875 7.371094 15.855469 7.394531 C 12.242188 7.421875 9.203125 4.421875 9.175781 0.808594 Z M 0.894531 0.867188 " clip-rule="nonzero"/></clipPath><clipPath id="3924fc89b1"><rect x="0" width="31" y="0" height="16"/></clipPath><clipPath id="4948a7aaee"><path d="M 36 51 L 67 51 L 67 67 L 36 67 Z M 36 51 " clip-rule="nonzero"/></clipPath><clipPath id="e667d62786"><path d="M 66.832031 66.570312 L 36.832031 66.785156 L 36.726562 51.785156 L 66.726562 51.574219 Z M 66.832031 66.570312 " clip-rule="nonzero"/></clipPath><clipPath id="40c4f774ae"><path d="M 67.398438 66.566406 L 37.015625 66.78125 L 36.910156 51.875 L 67.292969 51.664062 Z M 67.398438 66.566406 " clip-rule="nonzero"/></clipPath><clipPath id="08f6b0eb28"><path d="M 36.910156 51.875 C 36.964844 59.996094 43.800781 66.734375 51.917969 66.675781 C 60.039062 66.621094 66.777344 59.785156 66.71875 51.667969 L 58.445312 51.722656 C 58.46875 55.335938 55.472656 58.375 51.863281 58.402344 C 48.25 58.425781 45.210938 55.429688 45.183594 51.816406 Z M 36.910156 51.875 " clip-rule="nonzero"/></clipPath><clipPath id="9a7cf10241"><path d="M 6 7 L 22 7 L 22 38 L 6 38 Z M 6 7 " clip-rule="nonzero"/></clipPath><clipPath id="5ef848fbfe"><path d="M 7.066406 37.816406 L 6.855469 7.925781 L 21.769531 7.820312 L 21.980469 37.710938 Z M 7.066406 37.816406 " clip-rule="nonzero"/></clipPath><clipPath id="0c5450acc3"><path d="M 21.769531 7.820312 C 13.648438 7.878906 6.902344 14.714844 6.960938 22.839844 C 7.019531 30.964844 13.855469 37.710938 21.980469 37.652344 L 21.921875 29.371094 C 18.308594 29.394531 15.269531 26.394531 15.242188 22.78125 C 15.21875 19.167969 18.214844 16.128906 21.828125 16.101562 Z M 21.769531 7.820312 " clip-rule="nonzero"/></clipPath><clipPath id="26e0785d9e"><path d="M 0.71875 0.679688 L 16 0.679688 L 16 30.921875 L 0.71875 30.921875 Z M 0.71875 0.679688 " clip-rule="nonzero"/></clipPath><clipPath id="d2d34fa1f7"><path d="M 1.066406 30.816406 L 0.855469 0.925781 L 15.769531 0.820312 L 15.980469 30.710938 Z M 1.066406 30.816406 " clip-rule="nonzero"/></clipPath><clipPath id="27759ef076"><path d="M 15.769531 0.820312 C 7.648438 0.878906 0.902344 7.714844 0.960938 15.839844 C 1.019531 23.964844 7.855469 30.710938 15.980469 30.652344 L 15.921875 22.371094 C 12.308594 22.394531 9.269531 19.394531 9.242188 15.78125 C 9.21875 12.167969 12.214844 9.128906 15.828125 9.101562 Z M 15.769531 0.820312 " clip-rule="nonzero"/></clipPath><clipPath id="424f610cdb"><rect x="0" width="16" y="0" height="31"/></clipPath><clipPath id="b7d9caefed"><path d="M 6 7 L 22 7 L 22 38 L 6 38 Z M 6 7 " clip-rule="nonzero"/></clipPath><clipPath id="64a0178a22"><path d="M 7.066406 37.757812 L 6.855469 7.757812 L 21.855469 7.652344 L 22.066406 37.652344 Z M 7.066406 37.757812 " clip-rule="nonzero"/></clipPath><clipPath id="7a3c798f8e"><path d="M 7.070312 38.324219 L 6.855469 7.9375 L 21.761719 7.835938 L 21.976562 38.21875 Z M 7.070312 38.324219 " clip-rule="nonzero"/></clipPath><clipPath id="c19021935e"><path d="M 21.761719 7.835938 C 13.640625 7.890625 6.902344 14.726562 6.960938 22.84375 C 7.019531 30.964844 13.851562 37.703125 21.972656 37.644531 L 21.914062 29.371094 C 18.300781 29.394531 15.261719 26.398438 15.238281 22.785156 C 15.210938 19.175781 18.207031 16.136719 21.820312 16.109375 Z M 21.761719 7.835938 " clip-rule="nonzero"/></clipPath><clipPath id="c948837aa3"><path d="M 6 36 L 22 36 L 22 67 L 6 67 Z M 6 36 " clip-rule="nonzero"/></clipPath><clipPath id="2425724e10"><path d="M 6.816406 66.683594 L 6.605469 36.792969 L 21.519531 36.6875 L 21.730469 66.578125 Z M 6.816406 66.683594 " clip-rule="nonzero"/></clipPath><clipPath id="c51bb9225f"><path d="M 21.519531 36.6875 C 13.394531 36.746094 6.652344 43.585938 6.710938 51.710938 C 6.765625 59.835938 13.605469 66.578125 21.730469 66.519531 L 21.671875 58.238281 C 18.058594 58.261719 15.015625 55.265625 14.992188 51.652344 C 14.964844 48.039062 17.964844 44.996094 21.578125 44.972656 Z M 21.519531 36.6875 " clip-rule="nonzero"/></clipPath><clipPath id="8dd511b122"><path d="M 0.480469 0.480469 L 15.839844 0.480469 L 15.839844 30.71875 L 0.480469 30.71875 Z M 0.480469 0.480469 " clip-rule="nonzero"/></clipPath><clipPath id="c25152bad9"><path d="M 0.816406 30.683594 L 0.605469 0.792969 L 15.519531 0.6875 L 15.730469 30.578125 Z M 0.816406 30.683594 " clip-rule="nonzero"/></clipPath><clipPath id="73ddad8547"><path d="M 15.519531 0.6875 C 7.394531 0.746094 0.652344 7.585938 0.710938 15.710938 C 0.765625 23.835938 7.605469 30.578125 15.730469 30.519531 L 15.671875 22.238281 C 12.058594 22.261719 9.015625 19.265625 8.992188 15.652344 C 8.964844 12.039062 11.964844 8.996094 15.578125 8.972656 Z M 15.519531 0.6875 " clip-rule="nonzero"/></clipPath><clipPath id="540eec8930"><rect x="0" width="16" y="0" height="31"/></clipPath><clipPath id="e34e8dd637"><path d="M 6 36 L 22 36 L 22 67 L 6 67 Z M 6 36 " clip-rule="nonzero"/></clipPath><clipPath id="8217f7e5a1"><path d="M 6.8125 66.625 L 6.601562 36.625 L 21.601562 36.519531 L 21.8125 66.519531 Z M 6.8125 66.625 " clip-rule="nonzero"/></clipPath><clipPath id="0bf207de0a"><path d="M 6.820312 67.191406 L 6.605469 36.808594 L 21.511719 36.703125 L 21.722656 67.085938 Z M 6.820312 67.191406 " clip-rule="nonzero"/></clipPath><clipPath id="1c3faa0546"><path d="M 21.511719 36.703125 C 13.390625 36.761719 6.652344 43.59375 6.710938 51.714844 C 6.765625 59.832031 13.601562 66.570312 21.71875 66.515625 L 21.660156 58.238281 C 18.050781 58.261719 15.011719 55.265625 14.984375 51.65625 C 14.960938 48.042969 17.957031 45.003906 21.570312 44.980469 Z M 21.511719 36.703125 " clip-rule="nonzero"/></clipPath><clipPath id="61ae508e87"><path d="M 52 36 L 68 36 L 68 67 L 52 67 Z M 52 36 " clip-rule="nonzero"/></clipPath><clipPath id="09f6c8ef4b"><path d="M 67.28125 36.636719 L 67.492188 66.527344 L 52.574219 66.632812 L 52.363281 36.742188 Z M 67.28125 36.636719 " clip-rule="nonzero"/></clipPath><clipPath id="d05c53ceae"><path d="M 52.574219 66.632812 C 60.699219 66.578125 67.441406 59.738281 67.386719 51.613281 C 67.328125 43.488281 60.488281 36.746094 52.363281 36.800781 L 52.421875 45.085938 C 56.035156 45.058594 59.078125 48.058594 59.105469 51.671875 C 59.128906 55.285156 56.128906 58.324219 52.515625 58.351562 Z M 52.574219 66.632812 " clip-rule="nonzero"/></clipPath><clipPath id="5b07bb2531"><path d="M 0.320312 0.71875 L 15.679688 0.71875 L 15.679688 30.71875 L 0.320312 30.71875 Z M 0.320312 0.71875 " clip-rule="nonzero"/></clipPath><clipPath id="8832e66abb"><path d="M 15.28125 0.636719 L 15.492188 30.527344 L 0.574219 30.632812 L 0.363281 0.742188 Z M 15.28125 0.636719 " clip-rule="nonzero"/></clipPath><clipPath id="0fef23aa65"><path d="M 0.574219 30.632812 C 8.699219 30.578125 15.441406 23.738281 15.386719 15.613281 C 15.328125 7.488281 8.488281 0.746094 0.363281 0.800781 L 0.421875 9.085938 C 4.035156 9.058594 7.078125 12.058594 7.105469 15.671875 C 7.128906 19.285156 4.128906 22.324219 0.515625 22.351562 Z M 0.574219 30.632812 " clip-rule="nonzero"/></clipPath><clipPath id="ee050dfc38"><rect x="0" width="16" y="0" height="31"/></clipPath><clipPath id="e9f57f9bb7"><path d="M 52 36 L 68 36 L 68 67 L 52 67 Z M 52 36 " clip-rule="nonzero"/></clipPath><clipPath id="fc02fd4861"><path d="M 67.28125 36.695312 L 67.492188 66.695312 L 52.492188 66.800781 L 52.28125 36.800781 Z M 67.28125 36.695312 " clip-rule="nonzero"/></clipPath><clipPath id="ca057ee26f"><path d="M 67.277344 36.128906 L 67.492188 66.515625 L 52.585938 66.621094 L 52.371094 36.234375 Z M 67.277344 36.128906 " clip-rule="nonzero"/></clipPath><clipPath id="5fd05f4522"><path d="M 52.585938 66.621094 C 60.703125 66.5625 67.441406 59.726562 67.386719 51.609375 C 67.328125 43.488281 60.492188 36.75 52.375 36.808594 L 52.433594 45.085938 C 56.042969 45.058594 59.082031 48.054688 59.109375 51.667969 C 59.132812 55.277344 56.136719 58.316406 52.527344 58.34375 Z M 52.585938 66.621094 " clip-rule="nonzero"/></clipPath><clipPath id="d3426dd901"><path d="M 51 7 L 67 7 L 67 38 L 51 38 Z M 51 7 " clip-rule="nonzero"/></clipPath><clipPath id="7876503461"><path d="M 66.414062 7.570312 L 66.625 37.460938 L 51.710938 37.566406 L 51.5 7.675781 Z M 66.414062 7.570312 " clip-rule="nonzero"/></clipPath><clipPath id="daf9b8c54a"><path d="M 51.710938 37.566406 C 59.835938 37.507812 66.578125 30.667969 66.519531 22.542969 C 66.464844 14.417969 59.625 7.675781 51.5 7.734375 L 51.558594 16.015625 C 55.171875 15.988281 58.210938 18.988281 58.238281 22.601562 C 58.261719 26.214844 55.265625 29.257812 51.652344 29.28125 Z M 51.710938 37.566406 " clip-rule="nonzero"/></clipPath><clipPath id="5702ce268d"><path d="M 0.359375 0.441406 L 15.71875 0.441406 L 15.71875 30.679688 L 0.359375 30.679688 Z M 0.359375 0.441406 " clip-rule="nonzero"/></clipPath><clipPath id="980be27772"><path d="M 15.414062 0.570312 L 15.625 30.460938 L 0.710938 30.566406 L 0.5 0.675781 Z M 15.414062 0.570312 " clip-rule="nonzero"/></clipPath><clipPath id="8e61507998"><path d="M 0.710938 30.566406 C 8.835938 30.507812 15.578125 23.667969 15.519531 15.542969 C 15.464844 7.417969 8.625 0.675781 0.5 0.734375 L 0.558594 9.015625 C 4.171875 8.988281 7.210938 11.988281 7.238281 15.601562 C 7.261719 19.214844 4.265625 22.257812 0.652344 22.28125 Z M 0.710938 30.566406 " clip-rule="nonzero"/></clipPath><clipPath id="b05d05e0b4"><rect x="0" width="16" y="0" height="31"/></clipPath><clipPath id="ec58bb39bc"><path d="M 51 7 L 67 7 L 67 38 L 51 38 Z M 51 7 " clip-rule="nonzero"/></clipPath><clipPath id="78a987056d"><path d="M 66.414062 7.628906 L 66.625 37.628906 L 51.625 37.734375 L 51.414062 7.734375 Z M 66.414062 7.628906 " clip-rule="nonzero"/></clipPath><clipPath id="dfd5244eaf"><path d="M 66.410156 7.0625 L 66.625 37.445312 L 51.71875 37.550781 L 51.503906 7.164062 Z M 66.410156 7.0625 " clip-rule="nonzero"/></clipPath><clipPath id="88e5e8bc5b"><path d="M 51.71875 37.550781 C 59.839844 37.492188 66.578125 30.660156 66.519531 22.539062 C 66.464844 14.421875 59.628906 7.683594 51.507812 7.738281 L 51.566406 16.015625 C 55.179688 15.992188 58.21875 18.988281 58.242188 22.597656 C 58.269531 26.210938 55.273438 29.25 51.660156 29.273438 Z M 51.71875 37.550781 " clip-rule="nonzero"/></clipPath><clipPath id="da623c7bad"><path d="M 22 1 L 48 1 L 48 28 L 22 28 Z M 22 1 " clip-rule="nonzero"/></clipPath><clipPath id="a5a32a72e3"><path d="M 16.226562 16.714844 L 37.210938 -4.566406 L 47.835938 5.90625 L 26.847656 27.1875 Z M 16.226562 16.714844 " clip-rule="nonzero"/></clipPath><clipPath id="a9d500d861"><path d="M 47.835938 5.90625 C 42.046875 0.199219 32.445312 0.269531 26.738281 6.054688 C 21.035156 11.839844 21.101562 21.441406 26.886719 27.148438 L 32.703125 21.25 C 30.128906 18.714844 30.101562 14.441406 32.636719 11.867188 C 35.175781 9.296875 39.445312 9.265625 42.019531 11.800781 Z M 47.835938 5.90625 " clip-rule="nonzero"/></clipPath><clipPath id="facdad5d1d"><path d="M 0 0 L 26 0 L 26 26.359375 L 0 26.359375 Z M 0 0 " clip-rule="nonzero"/></clipPath><clipPath id="52605123a8"><path d="M -5.773438 15.714844 L 15.210938 -5.566406 L 25.835938 4.90625 L 4.847656 26.1875 Z M -5.773438 15.714844 " clip-rule="nonzero"/></clipPath><clipPath id="bb36b86673"><path d="M 25.835938 4.90625 C 20.046875 -0.800781 10.445312 -0.730469 4.738281 5.054688 C -0.964844 10.839844 -0.898438 20.441406 4.886719 26.148438 L 10.703125 20.25 C 8.128906 17.714844 8.101562 13.441406 10.636719 10.867188 C 13.175781 8.296875 17.445312 8.265625 20.019531 10.800781 Z M 25.835938 4.90625 " clip-rule="nonzero"/></clipPath><clipPath id="d5827e14d2"><rect x="0" width="26" y="0" height="27"/></clipPath><clipPath id="a8f2bc6c2f"><path d="M 22 1 L 48 1 L 48 28 L 22 28 Z M 22 1 " clip-rule="nonzero"/></clipPath><clipPath id="c284b17d65"><path d="M 16.265625 16.675781 L 37.332031 -4.6875 L 48.011719 5.84375 L 26.949219 27.207031 Z M 16.265625 16.675781 " clip-rule="nonzero"/></clipPath><clipPath id="4f02030410"><path d="M 15.867188 17.078125 L 37.203125 -4.558594 L 47.816406 5.90625 L 26.484375 27.542969 Z M 15.867188 17.078125 " clip-rule="nonzero"/></clipPath><clipPath id="786f9cf8c8"><path d="M 47.816406 5.90625 C 42.035156 0.207031 32.4375 0.273438 26.738281 6.054688 C 21.035156 11.835938 21.105469 21.4375 26.886719 27.136719 L 32.695312 21.242188 C 30.125 18.707031 30.09375 14.4375 32.628906 11.867188 C 35.167969 9.296875 39.433594 9.265625 42.007812 11.800781 Z M 47.816406 5.90625 " clip-rule="nonzero"/></clipPath><clipPath id="5cd1b94bfc"><path d="M 1 22 L 27 22 L 27 48 L 1 48 Z M 1 22 " clip-rule="nonzero"/></clipPath><clipPath id="892e3925f6"><path d="M -4.867188 37.5625 L 16.117188 16.277344 L 26.738281 26.75 L 5.753906 48.035156 Z M -4.867188 37.5625 " clip-rule="nonzero"/></clipPath><clipPath id="b263085e5d"><path d="M 26.738281 26.75 C 20.953125 21.046875 11.351562 21.113281 5.644531 26.898438 C -0.0585938 32.683594 0.0078125 42.289062 5.792969 47.992188 L 11.609375 42.09375 C 9.035156 39.558594 9.007812 35.285156 11.542969 32.714844 C 14.082031 30.140625 18.351562 30.109375 20.925781 32.648438 Z M 26.738281 26.75 " clip-rule="nonzero"/></clipPath><clipPath id="d63d8b4557"><path d="M 0 0 L 25.878906 0 L 25.878906 26 L 0 26 Z M 0 0 " clip-rule="nonzero"/></clipPath><clipPath id="f7cb0ab1ea"><path d="M -5.867188 15.5625 L 15.117188 -5.722656 L 25.738281 4.75 L 4.753906 26.035156 Z M -5.867188 15.5625 " clip-rule="nonzero"/></clipPath><clipPath id="b6dc440a94"><path d="M 25.738281 4.75 C 19.953125 -0.953125 10.351562 -0.886719 4.644531 4.898438 C -1.058594 10.683594 -0.992188 20.289062 4.792969 25.992188 L 10.609375 20.09375 C 8.035156 17.558594 8.007812 13.285156 10.542969 10.714844 C 13.082031 8.140625 17.351562 8.109375 19.925781 10.648438 Z M 25.738281 4.75 " clip-rule="nonzero"/></clipPath><clipPath id="6598eac6f9"><rect x="0" width="26" y="0" height="26"/></clipPath><clipPath id="13fe806204"><path d="M 1 22 L 27 22 L 27 48 L 1 48 Z M 1 22 " clip-rule="nonzero"/></clipPath><clipPath id="139793957f"><path d="M -4.828125 37.519531 L 16.234375 16.15625 L 26.917969 26.6875 L 5.855469 48.050781 Z M -4.828125 37.519531 " clip-rule="nonzero"/></clipPath><clipPath id="1694f2eabf"><path d="M -5.226562 37.921875 L 16.109375 16.285156 L 26.722656 26.753906 L 5.390625 48.390625 Z M -5.226562 37.921875 " clip-rule="nonzero"/></clipPath><clipPath id="e3e274867c"><path d="M 26.722656 26.753906 C 20.941406 21.050781 11.34375 21.121094 5.644531 26.902344 C -0.0585938 32.683594 0.0117188 42.28125 5.792969 47.980469 L 11.601562 42.085938 C 9.03125 39.550781 9 35.285156 11.535156 32.710938 C 14.070312 30.140625 18.339844 30.109375 20.910156 32.644531 Z M 26.722656 26.753906 " clip-rule="nonzero"/></clipPath><clipPath id="5c97de2667"><path d="M 26 47 L 53 47 L 53 74 L 26 74 Z M 26 47 " clip-rule="nonzero"/></clipPath><clipPath id="22559ff3cf"><path d="M 58.484375 58.125 L 37.496094 79.410156 L 26.875 68.9375 L 47.863281 47.652344 Z M 58.484375 58.125 " clip-rule="nonzero"/></clipPath><clipPath id="9381e4cdcf"><path d="M 26.875 68.9375 C 32.660156 74.640625 42.265625 74.574219 47.96875 68.789062 C 53.675781 63.003906 53.605469 53.398438 47.820312 47.695312 L 42.007812 53.589844 C 44.578125 56.128906 44.609375 60.398438 42.074219 62.972656 C 39.535156 65.546875 35.265625 65.574219 32.691406 63.039062 Z M 26.875 68.9375 " clip-rule="nonzero"/></clipPath><clipPath id="99be13291b"><path d="M 0.640625 0.519531 L 27 0.519531 L 27 27 L 0.640625 27 Z M 0.640625 0.519531 " clip-rule="nonzero"/></clipPath><clipPath id="8d546635dc"><path d="M 32.484375 11.125 L 11.496094 32.410156 L 0.875 21.9375 L 21.863281 0.652344 Z M 32.484375 11.125 " clip-rule="nonzero"/></clipPath><clipPath id="c9b2e5fdb6"><path d="M 0.875 21.9375 C 6.660156 27.640625 16.265625 27.574219 21.96875 21.789062 C 27.675781 16.003906 27.605469 6.398438 21.820312 0.695312 L 16.007812 6.589844 C 18.578125 9.128906 18.609375 13.398438 16.074219 15.972656 C 13.535156 18.546875 9.265625 18.574219 6.691406 16.039062 Z M 0.875 21.9375 " clip-rule="nonzero"/></clipPath><clipPath id="c01f39123e"><rect x="0" width="27" y="0" height="27"/></clipPath><clipPath id="99b095a27f"><path d="M 26 47 L 53 47 L 53 74 L 26 74 Z M 26 47 " clip-rule="nonzero"/></clipPath><clipPath id="a5b7a4f3a3"><path d="M 58.441406 58.167969 L 37.378906 79.527344 L 26.699219 68.996094 L 47.761719 47.636719 Z M 58.441406 58.167969 " clip-rule="nonzero"/></clipPath><clipPath id="e82a2417c6"><path d="M 58.839844 57.761719 L 37.507812 79.398438 L 26.894531 68.933594 L 48.226562 47.296875 Z M 58.839844 57.761719 " clip-rule="nonzero"/></clipPath><clipPath id="bbdf394967"><path d="M 26.894531 68.933594 C 32.675781 74.632812 42.273438 74.566406 47.972656 68.785156 C 53.671875 63.003906 53.605469 53.40625 47.824219 47.703125 L 42.011719 53.597656 C 44.585938 56.132812 44.613281 60.402344 42.078125 62.972656 C 39.542969 65.546875 35.273438 65.574219 32.703125 63.039062 Z M 26.894531 68.933594 " clip-rule="nonzero"/></clipPath><clipPath id="cc4f5ec4d5"><path d="M 47 26 L 73 26 L 73 52 L 47 52 Z M 47 26 " clip-rule="nonzero"/></clipPath><clipPath id="61938f9024"><path d="M 79.21875 36.78125 L 58.234375 58.066406 L 47.613281 47.59375 L 68.597656 26.308594 Z M 79.21875 36.78125 " clip-rule="nonzero"/></clipPath><clipPath id="729babaa3c"><path d="M 47.613281 47.59375 C 53.398438 53.296875 63.003906 53.230469 68.707031 47.445312 C 74.410156 41.660156 74.34375 32.054688 68.558594 26.351562 L 62.742188 32.246094 C 65.316406 34.785156 65.347656 39.054688 62.808594 41.628906 C 60.273438 44.203125 56 44.234375 53.429688 41.695312 Z M 47.613281 47.59375 " clip-rule="nonzero"/></clipPath><clipPath id="879ad30dda"><path d="M 0.519531 0.160156 L 26 0.160156 L 26 26 L 0.519531 26 Z M 0.519531 0.160156 " clip-rule="nonzero"/></clipPath><clipPath id="98046e10ad"><path d="M 32.21875 10.78125 L 11.234375 32.066406 L 0.613281 21.59375 L 21.597656 0.308594 Z M 32.21875 10.78125 " clip-rule="nonzero"/></clipPath><clipPath id="720a768fd3"><path d="M 0.613281 21.59375 C 6.398438 27.296875 16.003906 27.230469 21.707031 21.445312 C 27.410156 15.660156 27.34375 6.054688 21.558594 0.351562 L 15.742188 6.246094 C 18.316406 8.785156 18.347656 13.054688 15.808594 15.628906 C 13.273438 18.203125 9 18.234375 6.429688 15.695312 Z M 0.613281 21.59375 " clip-rule="nonzero"/></clipPath><clipPath id="29c1dca938"><rect x="0" width="26" y="0" height="26"/></clipPath><clipPath id="9850ba1c05"><path d="M 47 26 L 73 26 L 73 52 L 47 52 Z M 47 26 " clip-rule="nonzero"/></clipPath><clipPath id="7f32114961"><path d="M 79.179688 36.824219 L 58.117188 58.183594 L 47.433594 47.652344 L 68.5 26.292969 Z M 79.179688 36.824219 " clip-rule="nonzero"/></clipPath><clipPath id="0b26f7141f"><path d="M 79.578125 36.417969 L 58.242188 58.054688 L 47.628906 47.589844 L 68.964844 25.953125 Z M 79.578125 36.417969 " clip-rule="nonzero"/></clipPath><clipPath id="1d5842f6b9"><path d="M 47.628906 47.589844 C 53.410156 53.289062 63.007812 53.222656 68.710938 47.441406 C 74.410156 41.660156 74.34375 32.0625 68.5625 26.363281 L 62.75 32.253906 C 65.320312 34.789062 65.351562 39.058594 62.816406 41.628906 C 60.28125 44.203125 56.011719 44.230469 53.441406 41.695312 Z M 47.628906 47.589844 " clip-rule="nonzero"/></clipPath><clipPath id="c00e43ee12"><path d="M 1 27 L 28 27 L 28 53 L 1 53 Z M 1 27 " clip-rule="nonzero"/></clipPath><clipPath id="9006898fd2"><path d="M 16.585938 58.75 L -4.699219 37.761719 L 5.773438 27.140625 L 27.058594 48.128906 Z M 16.585938 58.75 " clip-rule="nonzero"/></clipPath><clipPath id="24c18a063c"><path d="M 5.773438 27.140625 C 0.0703125 32.925781 0.136719 42.53125 5.921875 48.234375 C 11.707031 53.941406 21.3125 53.871094 27.015625 48.085938 L 21.117188 42.273438 C 18.582031 44.84375 14.308594 44.875 11.738281 42.339844 C 9.164062 39.800781 9.132812 35.53125 11.671875 32.957031 Z M 5.773438 27.140625 " clip-rule="nonzero"/></clipPath><clipPath id="a82c5e9bd3"><path d="M 0 0.121094 L 26.121094 0.121094 L 26.121094 26 L 0 26 Z M 0 0.121094 " clip-rule="nonzero"/></clipPath><clipPath id="5b91b65c93"><path d="M 15.585938 31.75 L -5.699219 10.761719 L 4.773438 0.140625 L 26.058594 21.128906 Z M 15.585938 31.75 " clip-rule="nonzero"/></clipPath><clipPath id="852767753a"><path d="M 4.773438 0.140625 C -0.929688 5.925781 -0.863281 15.53125 4.921875 21.234375 C 10.707031 26.941406 20.3125 26.871094 26.015625 21.085938 L 20.117188 15.273438 C 17.582031 17.84375 13.308594 17.875 10.738281 15.339844 C 8.164062 12.800781 8.132812 8.53125 10.671875 5.957031 Z M 4.773438 0.140625 " clip-rule="nonzero"/></clipPath><clipPath id="985294a65c"><rect x="0" width="27" y="0" height="26"/></clipPath><clipPath id="4f2c3960e0"><path d="M 1 27 L 28 27 L 28 53 L 1 53 Z M 1 27 " clip-rule="nonzero"/></clipPath><clipPath id="5ae304fa07"><path d="M 16.542969 58.707031 L -4.820312 37.644531 L 5.710938 26.964844 L 27.074219 48.027344 Z M 16.542969 58.707031 " clip-rule="nonzero"/></clipPath><clipPath id="76086e9f39"><path d="M 16.949219 59.105469 L -4.6875 37.773438 L 5.777344 27.160156 L 27.414062 48.492188 Z M 16.949219 59.105469 " clip-rule="nonzero"/></clipPath><clipPath id="1a8e7e2f56"><path d="M 5.777344 27.160156 C 0.0742188 32.941406 0.144531 42.539062 5.925781 48.238281 C 11.707031 53.9375 21.304688 53.871094 27.003906 48.089844 L 21.109375 42.277344 C 18.574219 44.851562 14.308594 44.878906 11.734375 42.34375 C 9.164062 39.808594 9.136719 35.542969 11.671875 32.96875 Z M 5.777344 27.160156 " clip-rule="nonzero"/></clipPath><clipPath id="7d8676c162"><path d="M 22 47 L 48 47 L 48 74 L 22 74 Z M 22 47 " clip-rule="nonzero"/></clipPath><clipPath id="57b86eeefb"><path d="M 37.546875 79.445312 L 16.261719 58.457031 L 26.734375 47.835938 L 48.019531 68.824219 Z M 37.546875 79.445312 " clip-rule="nonzero"/></clipPath><clipPath id="5b2716fb89"><path d="M 26.734375 47.835938 C 21.03125 53.621094 21.097656 63.226562 26.882812 68.929688 C 32.667969 74.636719 42.273438 74.566406 47.976562 68.78125 L 42.078125 62.96875 C 39.542969 65.539062 35.269531 65.570312 32.699219 63.03125 C 30.125 60.496094 30.09375 56.226562 32.632812 53.652344 Z M 26.734375 47.835938 " clip-rule="nonzero"/></clipPath><clipPath id="e896fd766b"><path d="M 0 0.761719 L 26 0.761719 L 26 27 L 0 27 Z M 0 0.761719 " clip-rule="nonzero"/></clipPath><clipPath id="51195f7de7"><path d="M 15.546875 32.445312 L -5.738281 11.457031 L 4.734375 0.835938 L 26.019531 21.824219 Z M 15.546875 32.445312 " clip-rule="nonzero"/></clipPath><clipPath id="1565cdbb24"><path d="M 4.734375 0.835938 C -0.96875 6.621094 -0.902344 16.226562 4.882812 21.929688 C 10.667969 27.636719 20.273438 27.566406 25.976562 21.78125 L 20.078125 15.96875 C 17.542969 18.539062 13.269531 18.570312 10.699219 16.03125 C 8.125 13.496094 8.09375 9.226562 10.632812 6.652344 Z M 4.734375 0.835938 " clip-rule="nonzero"/></clipPath><clipPath id="fad6882b18"><rect x="0" width="26" y="0" height="27"/></clipPath><clipPath id="69c4cf05c6"><path d="M 22 47 L 48 47 L 48 74 L 22 74 Z M 22 47 " clip-rule="nonzero"/></clipPath><clipPath id="e9d13d89bf"><path d="M 37.503906 79.402344 L 16.140625 58.339844 L 26.671875 47.660156 L 48.035156 68.722656 Z M 37.503906 79.402344 " clip-rule="nonzero"/></clipPath><clipPath id="46b27ce17c"><path d="M 37.910156 79.800781 L 16.269531 58.46875 L 26.738281 47.855469 L 48.375 69.1875 Z M 37.910156 79.800781 " clip-rule="nonzero"/></clipPath><clipPath id="0ea456d0a9"><path d="M 26.738281 47.855469 C 21.035156 53.636719 21.105469 63.234375 26.886719 68.933594 C 32.667969 74.632812 42.265625 74.566406 47.964844 68.785156 L 42.070312 62.972656 C 39.535156 65.546875 35.269531 65.574219 32.695312 63.039062 C 30.125 60.503906 30.09375 56.234375 32.632812 53.664062 Z M 26.738281 47.855469 " clip-rule="nonzero"/></clipPath><clipPath id="9bb62955c4"><path d="M 47 21 L 74 21 L 74 47 L 47 47 Z M 47 21 " clip-rule="nonzero"/></clipPath><clipPath id="ea4a543973"><path d="M 58.050781 15.363281 L 79.335938 36.347656 L 68.863281 46.96875 L 47.578125 25.984375 Z M 58.050781 15.363281 " clip-rule="nonzero"/></clipPath><clipPath id="7726c5c817"><path d="M 68.863281 46.96875 C 74.566406 41.183594 74.5 31.582031 68.710938 25.875 C 62.925781 20.171875 53.324219 20.238281 47.617188 26.023438 L 53.515625 31.839844 C 56.054688 29.265625 60.324219 29.238281 62.898438 31.773438 C 65.46875 34.3125 65.5 38.582031 62.964844 41.15625 Z M 68.863281 46.96875 " clip-rule="nonzero"/></clipPath><clipPath id="05a5cbffe2"><path d="M 0.519531 0 L 27 0 L 27 26 L 0.519531 26 Z M 0.519531 0 " clip-rule="nonzero"/></clipPath><clipPath id="fa622b3b30"><path d="M 11.050781 -5.636719 L 32.335938 15.347656 L 21.863281 25.96875 L 0.578125 4.984375 Z M 11.050781 -5.636719 " clip-rule="nonzero"/></clipPath><clipPath id="84fdf80b04"><path d="M 21.863281 25.96875 C 27.566406 20.183594 27.5 10.582031 21.710938 4.875 C 15.925781 -0.828125 6.324219 -0.761719 0.617188 5.023438 L 6.515625 10.839844 C 9.054688 8.265625 13.324219 8.238281 15.898438 10.773438 C 18.46875 13.3125 18.5 17.582031 15.964844 20.15625 Z M 21.863281 25.96875 " clip-rule="nonzero"/></clipPath><clipPath id="5878a0c9af"><rect x="0" width="27" y="0" height="26"/></clipPath><clipPath id="5bec58326c"><path d="M 47 21 L 74 21 L 74 47 L 47 47 Z M 47 21 " clip-rule="nonzero"/></clipPath><clipPath id="563d2b95a4"><path d="M 58.089844 15.402344 L 79.453125 36.46875 L 68.921875 47.148438 L 47.558594 26.085938 Z M 58.089844 15.402344 " clip-rule="nonzero"/></clipPath><clipPath id="86485d8a7b"><path d="M 57.6875 15.003906 L 79.324219 36.339844 L 68.859375 46.953125 L 47.222656 25.621094 Z M 57.6875 15.003906 " clip-rule="nonzero"/></clipPath><clipPath id="be8dbcbd51"><path d="M 68.859375 46.953125 C 74.558594 41.171875 74.492188 31.574219 68.710938 25.875 C 62.929688 20.171875 53.332031 20.242188 47.628906 26.023438 L 53.523438 31.832031 C 56.058594 29.261719 60.328125 29.230469 62.898438 31.765625 C 65.46875 34.300781 65.5 38.570312 62.964844 41.140625 Z M 68.859375 46.953125 " clip-rule="nonzero"/></clipPath><clipPath id="b7ffdfe957"><path d="M 26 1 L 53 1 L 53 28 L 26 28 Z M 26 1 " clip-rule="nonzero"/></clipPath><clipPath id="3213b36ca0"><path d="M 37.164062 -4.601562 L 58.449219 16.382812 L 47.976562 27.003906 L 26.691406 6.019531 Z M 37.164062 -4.601562 " clip-rule="nonzero"/></clipPath><clipPath id="afb32929db"><path d="M 47.976562 27.003906 C 53.679688 21.21875 53.613281 11.613281 47.828125 5.910156 C 42.042969 0.207031 32.4375 0.273438 26.734375 6.058594 L 32.628906 11.875 C 35.167969 9.300781 39.4375 9.269531 42.011719 11.808594 C 44.585938 14.34375 44.613281 18.617188 42.078125 21.191406 Z M 47.976562 27.003906 " clip-rule="nonzero"/></clipPath><clipPath id="d8a8e51e1a"><path d="M 0.640625 0 L 27 0 L 27 26.121094 L 0.640625 26.121094 Z M 0.640625 0 " clip-rule="nonzero"/></clipPath><clipPath id="89fddbd59b"><path d="M 11.164062 -5.601562 L 32.449219 15.382812 L 21.976562 26.003906 L 0.691406 5.019531 Z M 11.164062 -5.601562 " clip-rule="nonzero"/></clipPath><clipPath id="1d52722410"><path d="M 21.976562 26.003906 C 27.679688 20.21875 27.613281 10.613281 21.828125 4.910156 C 16.042969 -0.792969 6.4375 -0.726562 0.734375 5.058594 L 6.628906 10.875 C 9.167969 8.300781 13.4375 8.269531 16.011719 10.808594 C 18.585938 13.34375 18.613281 17.617188 16.078125 20.191406 Z M 21.976562 26.003906 " clip-rule="nonzero"/></clipPath><clipPath id="4e7bead2b1"><rect x="0" width="27" y="0" height="27"/></clipPath><clipPath id="92433177c3"><path d="M 26 1 L 53 1 L 53 27 L 26 27 Z M 26 1 " clip-rule="nonzero"/></clipPath><clipPath id="1932dc4b57"><path d="M 37.207031 -4.5625 L 58.566406 16.5 L 48.035156 27.183594 L 26.675781 6.117188 Z M 37.207031 -4.5625 " clip-rule="nonzero"/></clipPath><clipPath id="fc2cff519e"><path d="M 36.800781 -4.960938 L 58.4375 16.375 L 47.972656 26.988281 L 26.335938 5.652344 Z M 36.800781 -4.960938 " clip-rule="nonzero"/></clipPath><clipPath id="3adc8c5d54"><path d="M 47.972656 26.988281 C 53.671875 21.207031 53.605469 11.609375 47.824219 5.90625 C 42.042969 0.207031 32.445312 0.273438 26.742188 6.054688 L 32.636719 11.867188 C 35.171875 9.296875 39.441406 9.265625 42.011719 11.800781 C 44.585938 14.335938 44.613281 18.605469 42.078125 21.175781 Z M 47.972656 26.988281 " clip-rule="nonzero"/></clipPath><clipPath id="3328074076"><path d="M 19.707031 20.011719 L 55.226562 20.011719 L 55.226562 37.738281 L 19.707031 37.738281 Z M 19.707031 20.011719 " clip-rule="nonzero"/></clipPath><clipPath id="0d8b02388c"><path d="M 55.226562 37.738281 C 55.226562 28.082031 47.15625 20.011719 37.5 20.011719 C 27.84375 20.011719 19.773438 28.082031 19.773438 37.738281 L 29.617188 37.738281 C 29.617188 33.445312 33.207031 29.855469 37.5 29.855469 C 41.792969 29.855469 45.382812 33.445312 45.382812 37.738281 Z M 55.226562 37.738281 " clip-rule="nonzero"/></clipPath><clipPath id="fc81b63f44"><path d="M 0.707031 0.0117188 L 36.226562 0.0117188 L 36.226562 17.738281 L 0.707031 17.738281 Z M 0.707031 0.0117188 " clip-rule="nonzero"/></clipPath><clipPath id="c36530c834"><path d="M 36.226562 17.738281 C 36.226562 8.082031 28.15625 0.0117188 18.5 0.0117188 C 8.84375 0.0117188 0.773438 8.082031 0.773438 17.738281 L 10.617188 17.738281 C 10.617188 13.445312 14.207031 9.855469 18.5 9.855469 C 22.792969 9.855469 26.382812 13.445312 26.382812 17.738281 Z M 36.226562 17.738281 " clip-rule="nonzero"/></clipPath><clipPath id="2ab7c804f0"><rect x="0" width="37" y="0" height="18"/></clipPath><clipPath id="a226c32c7c"><path d="M 19.773438 20.011719 L 55.023438 20.011719 L 55.023438 37.730469 L 19.773438 37.730469 Z M 19.773438 20.011719 " clip-rule="nonzero"/></clipPath><clipPath id="b163cce37f"><path d="M 55.21875 37.730469 C 55.21875 28.082031 47.152344 20.011719 37.5 20.011719 C 27.847656 20.011719 19.78125 28.082031 19.78125 37.730469 L 29.621094 37.730469 C 29.621094 33.441406 33.207031 29.851562 37.5 29.851562 C 41.792969 29.851562 45.378906 33.441406 45.378906 37.730469 Z M 55.21875 37.730469 " clip-rule="nonzero"/></clipPath><clipPath id="6f6c8335f2"><path d="M 19.773438 37.386719 L 55.292969 37.386719 L 55.292969 55.113281 L 19.773438 55.113281 Z M 19.773438 37.386719 " clip-rule="nonzero"/></clipPath><clipPath id="4d893d5c72"><path d="M 19.773438 37.386719 C 19.773438 47.042969 27.84375 55.113281 37.5 55.113281 C 47.152344 55.113281 55.222656 47.042969 55.222656 37.386719 L 45.382812 37.386719 C 45.382812 41.679688 41.792969 45.269531 37.5 45.269531 C 33.207031 45.269531 29.617188 41.679688 29.617188 37.386719 Z M 19.773438 37.386719 " clip-rule="nonzero"/></clipPath><clipPath id="05e5454615"><path d="M 0.773438 0.386719 L 36.292969 0.386719 L 36.292969 18.113281 L 0.773438 18.113281 Z M 0.773438 0.386719 " clip-rule="nonzero"/></clipPath><clipPath id="e52e8ba6fe"><path d="M 0.773438 0.386719 C 0.773438 10.042969 8.84375 18.113281 18.5 18.113281 C 28.152344 18.113281 36.222656 10.042969 36.222656 0.386719 L 26.382812 0.386719 C 26.382812 4.679688 22.792969 8.269531 18.5 8.269531 C 14.207031 8.269531 10.617188 4.679688 10.617188 0.386719 Z M 0.773438 0.386719 " clip-rule="nonzero"/></clipPath><clipPath id="c6f6823aac"><rect x="0" width="37" y="0" height="19"/></clipPath><clipPath id="1b6ffd3964"><path d="M 19.972656 37.394531 L 55.222656 37.394531 L 55.222656 55.113281 L 19.972656 55.113281 Z M 19.972656 37.394531 " clip-rule="nonzero"/></clipPath><clipPath id="bb6b197315"><path d="M 19.78125 37.394531 C 19.78125 47.042969 27.847656 55.113281 37.5 55.113281 C 47.152344 55.113281 55.21875 47.042969 55.21875 37.394531 L 45.378906 37.394531 C 45.378906 41.683594 41.792969 45.273438 37.5 45.273438 C 33.207031 45.273438 29.621094 41.683594 29.621094 37.394531 Z M 19.78125 37.394531 " clip-rule="nonzero"/></clipPath></defs><g clip-path="url(#32c1414164)"><g clip-path="url(#8d6f9d19fe)"><g clip-path="url(#50a335722a)"><g transform="matrix(1, 0, 0, 1, 36, 7)"><g clip-path="url(#a821d18c89)"><g clip-path="url(#c361f91a27)"><g clip-path="url(#5f571a076b)"><g clip-path="url(#e5a99d9793)"><path fill="#ffffff" d="M 0.59375 0.839844 L 30.425781 0.628906 L 30.527344 15.542969 L 0.699219 15.753906 Z M 0.59375 0.839844 " fill-opacity="1" fill-rule="nonzero"/></g></g></g></g></g></g></g></g><g clip-path="url(#bc2ad8ca9a)"><g clip-path="url(#fba627caff)"><g clip-path="url(#6073390b54)"><g clip-path="url(#fd2d870f69)"><path stroke-linecap="butt" transform="matrix(0.749981, -0.00528562, 0.00528562, 0.749981, 36.598446, 7.839207)" fill="none" stroke-linejoin="miter" d="M 39.750491 19.875235 C 39.748679 9.046828 30.702847 -0.00152266 19.87444 0.000289312 C 9.051241 0.00213799 -0.00231787 9.047933 -0.000505899 19.87634 L 11.036229 19.875997 C 11.033725 15.058151 15.062183 11.034358 19.874784 11.037025 C 24.687421 11.034483 28.716422 15.062978 28.713756 19.875579 Z M 39.750491 19.875235 " stroke="#000000" stroke-width="3.34" stroke-opacity="1" stroke-miterlimit="4"/></g></g></g></g><g clip-path="url(#bbb76cecce)"><g clip-path="url(#895c2623d7)"><g clip-path="url(#73661112db)"><g transform="matrix(1, 0, 0, 1, 6, 7)"><g clip-path="url(#c24af9aeba)"><g clip-path="url(#1d39c88064)"><g clip-path="url(#82cee90e40)"><g clip-path="url(#bfd90a3ed7)"><path fill="#ffffff" d="M 0.761719 1.050781 L 30.59375 0.839844 L 30.699219 15.753906 L 0.867188 15.964844 Z M 0.761719 1.050781 " fill-opacity="1" fill-rule="nonzero"/></g></g></g></g></g></g></g></g><g clip-path="url(#a67283b73a)"><g clip-path="url(#9164a2874a)"><g clip-path="url(#f4139ad7fb)"><g clip-path="url(#bab76c733f)"><path stroke-linecap="butt" transform="matrix(0.749981, -0.00528562, 0.00528562, 0.749981, 6.766866, 8.049449)" fill="none" stroke-linejoin="miter" d="M 39.749882 19.876157 C 39.74807 9.04775 30.702239 -0.000600426 19.873831 0.00121155 C 9.050669 -0.00214798 0.00228178 9.048892 -0.00111445 19.877263 L 11.035621 19.876919 C 11.038324 15.05911 15.061574 11.03528 19.874175 11.037947 C 24.692021 11.035442 28.715851 15.058692 28.713147 19.876501 Z M 39.749882 19.876157 " stroke="#000000" stroke-width="3.34" stroke-opacity="1" stroke-miterlimit="4"/></g></g></g></g><g clip-path="url(#2ae710828b)"><g clip-path="url(#2202114cc7)"><g clip-path="url(#e61d872a7d)"><g transform="matrix(1, 0, 0, 1, 7, 51)"><g clip-path="url(#ef9231b098)"><g clip-path="url(#1c9a397cd4)"><g clip-path="url(#397f4963be)"><g clip-path="url(#07428aa764)"><path fill="#ffffff" d="M 30 15.78125 L 0.167969 15.992188 L 0.0625 1.078125 L 29.894531 0.867188 Z M 30 15.78125 " fill-opacity="1" fill-rule="nonzero"/></g></g></g></g></g></g></g></g><g clip-path="url(#4f5ebe6ae2)"><g clip-path="url(#a3accca120)"><g clip-path="url(#ca9c81c308)"><g clip-path="url(#5f3566ef9c)"><path stroke-linecap="butt" transform="matrix(-0.749981, 0.00528562, -0.00528562, -0.749981, 36.994034, 66.782314)" fill="none" stroke-linejoin="miter" d="M 39.748793 19.875793 C 39.75219 9.047422 30.701149 -0.000964833 19.872742 0.000847114 C 9.04958 -0.00251244 0.00119272 9.048528 -0.00220354 19.876898 L 11.034532 19.876554 C 11.037235 15.058745 15.060485 11.034916 19.873086 11.037582 C 24.690932 11.035078 28.714761 15.058327 28.712058 19.876137 Z M 39.748793 19.875793 " stroke="#000000" stroke-width="3.34" stroke-opacity="1" stroke-miterlimit="4"/></g></g></g></g><g clip-path="url(#20d07db8e1)"><g clip-path="url(#a82607c540)"><g clip-path="url(#7c63405800)"><g transform="matrix(1, 0, 0, 1, 36, 51)"><g clip-path="url(#3924fc89b1)"><g clip-path="url(#45a1a8100f)"><g clip-path="url(#2eeee8b4b3)"><g clip-path="url(#23852a3b9e)"><path fill="#ffffff" d="M 30.832031 15.570312 L 1 15.78125 L 0.894531 0.867188 L 30.726562 0.65625 Z M 30.832031 15.570312 " fill-opacity="1" fill-rule="nonzero"/></g></g></g></g></g></g></g></g><g clip-path="url(#4948a7aaee)"><g clip-path="url(#e667d62786)"><g clip-path="url(#40c4f774ae)"><g clip-path="url(#08f6b0eb28)"><path stroke-linecap="butt" transform="matrix(-0.749981, 0.00528562, -0.00528562, -0.749981, 66.82561, 66.572074)" fill="none" stroke-linejoin="miter" d="M 39.74818 19.876719 C 39.751577 9.048348 30.700536 -0.0000391074 19.877337 0.00180955 C 9.048967 -0.00158671 0.000579667 9.049453 0.00242832 19.872652 L 11.033919 19.87748 C 11.036622 15.059671 15.059872 11.035841 19.87251 11.0333 C 24.690319 11.036004 28.714148 15.059253 28.716653 19.877099 Z M 39.74818 19.876719 " stroke="#000000" stroke-width="3.34" stroke-opacity="1" stroke-miterlimit="4"/></g></g></g></g><g clip-path="url(#9a7cf10241)"><g clip-path="url(#5ef848fbfe)"><g clip-path="url(#0c5450acc3)"><g transform="matrix(1, 0, 0, 1, 6, 7)"><g clip-path="url(#424f610cdb)"><g clip-path="url(#26e0785d9e)"><g clip-path="url(#d2d34fa1f7)"><g clip-path="url(#27759ef076)"><path fill="#ffffff" d="M 1.066406 30.757812 L 0.855469 0.925781 L 15.769531 0.820312 L 15.980469 30.652344 Z M 1.066406 30.757812 " fill-opacity="1" fill-rule="nonzero"/></g></g></g></g></g></g></g></g><g clip-path="url(#b7d9caefed)"><g clip-path="url(#64a0178a22)"><g clip-path="url(#7a3c798f8e)"><g clip-path="url(#c19021935e)"><path stroke-linecap="butt" transform="matrix(-0.00528562, -0.749981, 0.749981, -0.00528562, 7.06554, 37.750997)" fill="none" stroke-linejoin="miter" d="M 39.747662 19.875521 C 39.751058 9.047151 30.700018 -0.00123665 19.876819 0.000612031 C 9.048412 0.00242401 0.0000615885 9.048256 0.00187356 19.876663 L 11.033401 19.876283 C 11.036104 15.058474 15.059354 11.034644 19.877163 11.037347 C 24.689801 11.034806 28.71363 15.058056 28.716135 19.875902 Z M 39.747662 19.875521 " stroke="#000000" stroke-width="3.34" stroke-opacity="1" stroke-miterlimit="4"/></g></g></g></g><g clip-path="url(#c948837aa3)"><g clip-path="url(#2425724e10)"><g clip-path="url(#c51bb9225f)"><g transform="matrix(1, 0, 0, 1, 6, 36)"><g clip-path="url(#540eec8930)"><g clip-path="url(#8dd511b122)"><g clip-path="url(#c25152bad9)"><g clip-path="url(#73ddad8547)"><path fill="#ffffff" d="M 0.8125 30.625 L 0.605469 0.792969 L 15.519531 0.6875 L 15.730469 30.519531 Z M 0.8125 30.625 " fill-opacity="1" fill-rule="nonzero"/></g></g></g></g></g></g></g></g><g clip-path="url(#e34e8dd637)"><g clip-path="url(#8217f7e5a1)"><g clip-path="url(#0bf207de0a)"><g clip-path="url(#1c3faa0546)"><path stroke-linecap="butt" transform="matrix(-0.00528562, -0.749981, 0.749981, -0.00528562, 6.814367, 66.619578)" fill="none" stroke-linejoin="miter" d="M 39.749509 19.877098 C 39.747697 9.048691 30.701865 0.000340004 19.873458 0.00215198 C 9.050295 -0.00120755 0.00190821 9.049833 -0.00145132 19.872995 L 11.035284 19.872651 C 11.037951 15.06005 15.061201 11.036221 19.873838 11.033679 C 24.691647 11.036383 28.715477 15.059632 28.712773 19.877441 Z M 39.749509 19.877098 " stroke="#000000" stroke-width="3.34" stroke-opacity="1" stroke-miterlimit="4"/></g></g></g></g><g clip-path="url(#61ae508e87)"><g clip-path="url(#09f6c8ef4b)"><g clip-path="url(#d05c53ceae)"><g transform="matrix(1, 0, 0, 1, 52, 36)"><g clip-path="url(#ee050dfc38)"><g clip-path="url(#5b07bb2531)"><g clip-path="url(#8832e66abb)"><g clip-path="url(#0fef23aa65)"><path fill="#ffffff" d="M 15.28125 0.695312 L 15.492188 30.527344 L 0.574219 30.632812 L 0.363281 0.800781 Z M 15.28125 0.695312 " fill-opacity="1" fill-rule="nonzero"/></g></g></g></g></g></g></g></g><g clip-path="url(#e9f57f9bb7)"><g clip-path="url(#fc02fd4861)"><g clip-path="url(#ca057ee26f)"><g clip-path="url(#5fd05f4522)"><path stroke-linecap="butt" transform="matrix(0.00528562, 0.749981, -0.749981, 0.00528562, 67.280818, 36.702766)" fill="none" stroke-linejoin="miter" d="M 39.752033 19.873821 C 39.750184 9.050622 30.699144 0.00223486 19.875982 -0.00112469 C 9.047574 0.000687253 -0.000812894 9.051727 0.00103576 19.874926 L 11.037771 19.874583 C 11.03523 15.061945 15.058479 11.038115 19.876325 11.035611 C 24.688926 11.038278 28.712756 15.061527 28.715297 19.874165 Z M 39.752033 19.873821 " stroke="#000000" stroke-width="3.34" stroke-opacity="1" stroke-miterlimit="4"/></g></g></g></g><g clip-path="url(#d3426dd901)"><g clip-path="url(#7876503461)"><g clip-path="url(#daf9b8c54a)"><g transform="matrix(1, 0, 0, 1, 51, 7)"><g clip-path="url(#b05d05e0b4)"><g clip-path="url(#5702ce268d)"><g clip-path="url(#980be27772)"><g clip-path="url(#8e61507998)"><path fill="#ffffff" d="M 15.414062 0.628906 L 15.625 30.460938 L 0.710938 30.566406 L 0.5 0.734375 Z M 15.414062 0.628906 " fill-opacity="1" fill-rule="nonzero"/></g></g></g></g></g></g></g></g><g clip-path="url(#ec58bb39bc)"><g clip-path="url(#78a987056d)"><g clip-path="url(#dfd5244eaf)"><g clip-path="url(#88e5e8bc5b)"><path stroke-linecap="butt" transform="matrix(0.00528562, 0.749981, -0.749981, 0.00528562, 66.415191, 7.634024)" fill="none" stroke-linejoin="miter" d="M 39.749924 19.875887 C 39.748112 9.04748 30.70228 -0.000870956 19.873873 0.000940991 C 9.050711 -0.00241856 0.00232333 9.048622 -0.00107292 19.876992 L 11.035662 19.876648 C 11.038366 15.058839 15.061616 11.03501 19.874217 11.037676 C 24.692062 11.035172 28.715892 15.058421 28.713189 19.876231 Z M 39.749924 19.875887 " stroke="#000000" stroke-width="3.34" stroke-opacity="1" stroke-miterlimit="4"/></g></g></g></g><g clip-path="url(#da623c7bad)"><g clip-path="url(#a5a32a72e3)"><g clip-path="url(#a9d500d861)"><g transform="matrix(1, 0, 0, 1, 22, 1)"><g clip-path="url(#d5827e14d2)"><g clip-path="url(#facdad5d1d)"><g clip-path="url(#52605123a8)"><g clip-path="url(#bb36b86673)"><path fill="#ffffff" d="M -5.734375 15.675781 L 15.210938 -5.566406 L 25.835938 4.90625 L 4.886719 26.148438 Z M -5.734375 15.675781 " fill-opacity="1" fill-rule="nonzero"/></g></g></g></g></g></g></g></g><g clip-path="url(#a8f2bc6c2f)"><g clip-path="url(#c284b17d65)"><g clip-path="url(#4f02030410)"><g clip-path="url(#786f9cf8c8)"><path stroke-linecap="butt" transform="matrix(0.526579, -0.534054, 0.534054, 0.526579, 16.271336, 16.67069)" fill="none" stroke-linejoin="miter" d="M 39.750723 19.872802 C 39.749666 9.048636 30.701857 -0.00150208 19.877691 -0.000445445 C 9.049868 -0.00309752 -0.00032183 9.052077 0.000734805 19.876243 L 11.034844 19.872983 C 11.035622 15.059387 15.059989 11.032834 19.873585 11.033612 C 24.690838 11.038099 28.713735 15.058757 28.716614 19.876062 Z M 39.750723 19.872802 " stroke="#000000" stroke-width="3.34" stroke-opacity="1" stroke-miterlimit="4"/></g></g></g></g><g clip-path="url(#5cd1b94bfc)"><g clip-path="url(#892e3925f6)"><g clip-path="url(#b263085e5d)"><g transform="matrix(1, 0, 0, 1, 1, 22)"><g clip-path="url(#6598eac6f9)"><g clip-path="url(#d63d8b4557)"><g clip-path="url(#f7cb0ab1ea)"><g clip-path="url(#b6dc440a94)"><path fill="#ffffff" d="M -5.828125 15.519531 L 15.117188 -5.722656 L 25.738281 4.75 L 4.792969 25.992188 Z M -5.828125 15.519531 " fill-opacity="1" fill-rule="nonzero"/></g></g></g></g></g></g></g></g><g clip-path="url(#13fe806204)"><g clip-path="url(#139793957f)"><g clip-path="url(#1694f2eabf)"><g clip-path="url(#e3e274867c)"><path stroke-linecap="butt" transform="matrix(0.526579, -0.534054, 0.534054, 0.526579, -4.822777, 37.515454)" fill="none" stroke-linejoin="miter" d="M 39.748316 19.875854 C 39.750968 9.048032 30.699449 0.00155073 19.875284 0.00260737 C 9.047461 -0.0000447082 0.000979779 9.051473 0.00203641 19.875639 L 11.036145 19.872379 C 11.036924 15.058783 15.057582 11.035886 19.874887 11.033008 C 24.688483 11.033786 28.715037 15.058153 28.714258 19.871749 Z M 39.748316 19.875854 " stroke="#000000" stroke-width="3.34" stroke-opacity="1" stroke-miterlimit="4"/></g></g></g></g><g clip-path="url(#5c97de2667)"><g clip-path="url(#22559ff3cf)"><g clip-path="url(#9381e4cdcf)"><g transform="matrix(1, 0, 0, 1, 26, 47)"><g clip-path="url(#c01f39123e)"><g clip-path="url(#99be13291b)"><g clip-path="url(#8d546635dc)"><g clip-path="url(#c9b2e5fdb6)"><path fill="#ffffff" d="M 32.441406 11.167969 L 11.496094 32.410156 L 0.875 21.9375 L 21.820312 0.695312 Z M 32.441406 11.167969 " fill-opacity="1" fill-rule="nonzero"/></g></g></g></g></g></g></g></g><g clip-path="url(#99b095a27f)"><g clip-path="url(#a5b7a4f3a3)"><g clip-path="url(#e82a2417c6)"><g clip-path="url(#bbdf394967)"><path stroke-linecap="butt" transform="matrix(-0.526579, 0.534054, -0.534054, -0.526579, 58.438583, 58.170731)" fill="none" stroke-linejoin="miter" d="M 39.748272 19.873312 C 39.747215 9.049146 30.699406 -0.000991653 19.87524 0.0000649819 C 9.051074 0.00112162 0.000935899 9.048931 -0.00171618 19.876754 L 11.03605 19.877203 C 11.033171 15.059898 15.061195 11.037053 19.874791 11.037831 C 24.692096 11.034952 28.714941 15.062976 28.714163 19.876572 Z M 39.748272 19.873312 " stroke="#000000" stroke-width="3.34" stroke-opacity="1" stroke-miterlimit="4"/></g></g></g></g><g clip-path="url(#cc4f5ec4d5)"><g clip-path="url(#61938f9024)"><g clip-path="url(#729babaa3c)"><g transform="matrix(1, 0, 0, 1, 47, 26)"><g clip-path="url(#29c1dca938)"><g clip-path="url(#879ad30dda)"><g clip-path="url(#98046e10ad)"><g clip-path="url(#720a768fd3)"><path fill="#ffffff" d="M 32.179688 10.824219 L 11.234375 32.066406 L 0.613281 21.59375 L 21.558594 0.351562 Z M 32.179688 10.824219 " fill-opacity="1" fill-rule="nonzero"/></g></g></g></g></g></g></g></g><g clip-path="url(#9850ba1c05)"><g clip-path="url(#7f32114961)"><g clip-path="url(#0b26f7141f)"><g clip-path="url(#1d5842f6b9)"><path stroke-linecap="butt" transform="matrix(-0.526579, 0.534054, -0.534054, -0.526579, 79.175575, 36.827263)" fill="none" stroke-linejoin="miter" d="M 39.750454 19.87606 C 39.749397 9.051894 30.701588 0.00175667 19.873765 -0.000895408 C 9.049599 0.000161226 -0.000538604 9.047971 0.000518031 19.872137 L 11.034575 19.876242 C 11.035353 15.062646 15.05972 11.036092 19.873316 11.03687 C 24.690621 11.033992 28.713466 15.062016 28.712688 19.875612 Z M 39.750454 19.87606 " stroke="#000000" stroke-width="3.34" stroke-opacity="1" stroke-miterlimit="4"/></g></g></g></g><g clip-path="url(#c00e43ee12)"><g clip-path="url(#9006898fd2)"><g clip-path="url(#24c18a063c)"><g transform="matrix(1, 0, 0, 1, 1, 27)"><g clip-path="url(#985294a65c)"><g clip-path="url(#a82c5e9bd3)"><g clip-path="url(#5b91b65c93)"><g clip-path="url(#852767753a)"><path fill="#ffffff" d="M 15.542969 31.707031 L -5.699219 10.761719 L 4.773438 0.140625 L 26.015625 21.085938 Z M 15.542969 31.707031 " fill-opacity="1" fill-rule="nonzero"/></g></g></g></g></g></g></g></g><g clip-path="url(#4f2c3960e0)"><g clip-path="url(#5ae304fa07)"><g clip-path="url(#76086e9f39)"><g clip-path="url(#1a8e7e2f56)"><path stroke-linecap="butt" transform="matrix(-0.534054, -0.526579, 0.526579, -0.534054, 16.539245, 58.704438)" fill="none" stroke-linejoin="miter" d="M 39.747574 19.87443 C 39.750226 9.046608 30.698708 0.000126667 19.874542 0.0011833 C 9.050376 0.00223994 0.000238635 9.050049 0.00129527 19.874215 L 11.039061 19.874664 C 11.036182 15.057359 15.060497 11.038171 19.877802 11.035292 C 24.691398 11.03607 28.710587 15.060385 28.713465 19.87769 Z M 39.747574 19.87443 " stroke="#000000" stroke-width="3.34" stroke-opacity="1" stroke-miterlimit="4"/></g></g></g></g><g clip-path="url(#7d8676c162)"><g clip-path="url(#57b86eeefb)"><g clip-path="url(#5b2716fb89)"><g transform="matrix(1, 0, 0, 1, 22, 47)"><g clip-path="url(#fad6882b18)"><g clip-path="url(#e896fd766b)"><g clip-path="url(#51195f7de7)"><g clip-path="url(#1565cdbb24)"><path fill="#ffffff" d="M 15.503906 32.402344 L -5.738281 11.457031 L 4.734375 0.835938 L 25.976562 21.78125 Z M 15.503906 32.402344 " fill-opacity="1" fill-rule="nonzero"/></g></g></g></g></g></g></g></g><g clip-path="url(#69c4cf05c6)"><g clip-path="url(#e9d13d89bf)"><g clip-path="url(#46b27ce17c)"><g clip-path="url(#0ea456d0a9)"><path stroke-linecap="butt" transform="matrix(-0.534054, -0.526579, 0.526579, -0.534054, 37.500046, 79.399437)" fill="none" stroke-linejoin="miter" d="M 39.747151 19.874261 C 39.749803 9.046438 30.698285 -0.000042875 19.874119 0.00101376 C 9.049953 0.00207039 -0.00018456 9.04988 0.000872075 19.874046 L 11.038638 19.874495 C 11.035759 15.05719 15.060074 11.038001 19.877379 11.035123 C 24.690975 11.035901 28.717529 15.060268 28.713042 19.877521 Z M 39.747151 19.874261 " stroke="#000000" stroke-width="3.34" stroke-opacity="1" stroke-miterlimit="4"/></g></g></g></g><g clip-path="url(#9bb62955c4)"><g clip-path="url(#ea4a543973)"><g clip-path="url(#7726c5c817)"><g transform="matrix(1, 0, 0, 1, 47, 21)"><g clip-path="url(#5878a0c9af)"><g clip-path="url(#05a5cbffe2)"><g clip-path="url(#fa622b3b30)"><g clip-path="url(#84fdf80b04)"><path fill="#ffffff" d="M 11.089844 -5.597656 L 32.335938 15.347656 L 21.863281 25.96875 L 0.617188 5.023438 Z M 11.089844 -5.597656 " fill-opacity="1" fill-rule="nonzero"/></g></g></g></g></g></g></g></g><g clip-path="url(#5bec58326c)"><g clip-path="url(#563d2b95a4)"><g clip-path="url(#86485d8a7b)"><g clip-path="url(#be8dbcbd51)"><path stroke-linecap="butt" transform="matrix(0.534054, 0.526579, -0.526579, 0.534054, 58.095534, 15.407825)" fill="none" stroke-linejoin="miter" d="M 39.750369 19.873582 C 39.749312 9.049416 30.701503 -0.000722086 19.877337 0.000334549 C 9.049514 -0.00231753 0.00303286 9.049201 0.000380786 19.877023 L 11.03449 19.873763 C 11.035268 15.060167 15.059635 11.033614 19.873231 11.034392 C 24.686827 11.03517 28.713381 15.059537 28.712603 19.873133 Z M 39.750369 19.873582 " stroke="#000000" stroke-width="3.34" stroke-opacity="1" stroke-miterlimit="4"/></g></g></g></g><g clip-path="url(#b7ffdfe957)"><g clip-path="url(#3213b36ca0)"><g clip-path="url(#afb32929db)"><g transform="matrix(1, 0, 0, 1, 26, 1)"><g clip-path="url(#4e7bead2b1)"><g clip-path="url(#d8a8e51e1a)"><g clip-path="url(#89fddbd59b)"><g clip-path="url(#1d52722410)"><path fill="#ffffff" d="M 11.207031 -5.5625 L 32.449219 15.382812 L 21.976562 26.003906 L 0.734375 5.058594 Z M 11.207031 -5.5625 " fill-opacity="1" fill-rule="nonzero"/></g></g></g></g></g></g></g></g><g clip-path="url(#92433177c3)"><g clip-path="url(#1932dc4b57)"><g clip-path="url(#fc2cff519e)"><g clip-path="url(#3adc8c5d54)"><path stroke-linecap="butt" transform="matrix(0.534054, 0.526579, -0.526579, 0.534054, 37.209872, -4.55802)" fill="none" stroke-linejoin="miter" d="M 39.750303 19.875521 C 39.749247 9.051355 30.701437 0.00121693 19.873614 -0.00143515 C 9.049448 -0.000378512 -0.000689344 9.047431 -0.00334142 19.875254 L 11.034424 19.875702 C 11.035203 15.062106 15.059569 11.035553 19.873166 11.036331 C 24.69047 11.033452 28.713316 15.061476 28.712537 19.875072 Z M 39.750303 19.875521 " stroke="#000000" stroke-width="3.34" stroke-opacity="1" stroke-miterlimit="4"/></g></g></g></g><g clip-path="url(#3328074076)"><g clip-path="url(#0d8b02388c)"><g transform="matrix(1, 0, 0, 1, 19, 20)"><g clip-path="url(#2ab7c804f0)"><g clip-path="url(#fc81b63f44)"><g clip-path="url(#c36530c834)"><path fill="#ffffff" d="M 0.773438 0.0117188 L 36.226562 0.0117188 L 36.226562 17.738281 L 0.773438 17.738281 Z M 0.773438 0.0117188 " fill-opacity="1" fill-rule="nonzero"/></g></g></g></g></g></g><g clip-path="url(#a226c32c7c)"><g clip-path="url(#b163cce37f)"><path stroke-linecap="butt" transform="matrix(0.75, 0, 0, 0.75, 19.780884, 20.013288)" fill="none" stroke-linejoin="miter" d="M 47.250492 23.62291 C 47.250492 10.758326 36.495283 -0.00209202 23.62549 -0.00209202 C 10.755698 -0.00209202 0.000488474 10.758326 0.000488474 23.62291 L 13.120281 23.62291 C 13.120281 17.904159 17.901532 13.117701 23.62549 13.117701 C 29.349449 13.117701 34.1307 17.904159 34.1307 23.62291 Z M 47.250492 23.62291 " stroke="#000000" stroke-width="10" stroke-opacity="1" stroke-miterlimit="4"/></g></g><g clip-path="url(#6f6c8335f2)"><g clip-path="url(#4d893d5c72)"><g transform="matrix(1, 0, 0, 1, 19, 37)"><g clip-path="url(#c6f6823aac)"><g clip-path="url(#05e5454615)"><g clip-path="url(#e52e8ba6fe)"><path fill="#ffffff" d="M 36.222656 18.113281 L 0.773438 18.113281 L 0.773438 0.386719 L 36.222656 0.386719 Z M 36.222656 18.113281 " fill-opacity="1" fill-rule="nonzero"/></g></g></g></g></g></g><g clip-path="url(#1b6ffd3964)"><g clip-path="url(#bb6b197315)"><path stroke-linecap="butt" transform="matrix(-0.75, 0, 0, -0.75, 55.218381, 55.111953)" fill="none" stroke-linejoin="miter" d="M 47.249512 23.623231 C 47.249512 10.758646 36.494303 -0.00177113 23.62451 -0.00177113 C 10.754717 -0.00177113 -0.000492013 10.758646 -0.000492013 23.623231 L 13.119301 23.623231 C 13.119301 17.90448 17.900551 13.118022 23.62451 13.118022 C 29.348469 13.118022 34.129719 17.90448 34.129719 23.623231 Z M 47.249512 23.623231 " stroke="#000000" stroke-width="10" stroke-opacity="1" stroke-miterlimit="4"/></g></g></svg>